<svg width="17" height="16" viewBox="0 0 17 16" fill="none" xmlns="http://www.w3.org/2000/svg">
<mask id="path-1-outside-1_2092_616" maskUnits="userSpaceOnUse" x="1" y="1" width="16" height="15" fill="black">
<rect fill="white" x="1" y="1" width="16" height="15"/>
<path d="M3 14C1.89543 14 1 13.1046 1 12L1 3C1 1.89543 1.89543 1 3 1H13C14.1046 1 15 1.89543 15 3V12C15 13.1046 14.1046 14 13 14H3Z"/>
</mask>
<path d="M1 14L1 1L1 14M13 1C15.2091 1 17 2.79086 17 5V12C17 14.2091 15.2091 16 13 16V12V3C13 1.89543 13 1 13 1ZM17 12C17 14.2091 15.2091 16 13 16H5C2.79086 16 1 14.2091 1 12C1 12 1.89543 12 3 12H13H17ZM13 12M1 1H15H1" fill="#7C9FD3" mask="url(#path-1-outside-1_2092_616)"/>
<rect x="0.5" y="14.5" width="14" height="15" rx="2.5" transform="rotate(-90 0.5 14.5)" stroke="white"/>
<g filter="url(#filter0_ii_2092_616)">
<rect x="1" y="14" width="13" height="14" rx="2" transform="rotate(-90 1 14)" fill="url(#paint0_linear_2092_616)"/>
</g>
<rect x="1.5" y="13.5" width="12" height="13" rx="1.5" transform="rotate(-90 1.5 13.5)" stroke="#92AFF7" stroke-opacity="0.33"/>
<defs>
<filter id="filter0_ii_2092_616" x="1" y="1" width="15" height="14" filterUnits="userSpaceOnUse" color-interpolation-filters="sRGB">
<feFlood flood-opacity="0" result="BackgroundImageFix"/>
<feBlend mode="normal" in="SourceGraphic" in2="BackgroundImageFix" result="shape"/>
<feColorMatrix in="SourceAlpha" type="matrix" values="0 0 0 0 0 0 0 0 0 0 0 0 0 0 0 0 0 0 127 0" result="hardAlpha"/>
<feOffset dx="2"/>
<feGaussianBlur stdDeviation="0.5"/>
<feComposite in2="hardAlpha" operator="arithmetic" k2="-1" k3="1"/>
<feColorMatrix type="matrix" values="0 0 0 0 0.882353 0 0 0 0 0.917647 0 0 0 0 0.996078 0 0 0 0.5 0"/>
<feBlend mode="normal" in2="shape" result="effect1_innerShadow_2092_616"/>
<feColorMatrix in="SourceAlpha" type="matrix" values="0 0 0 0 0 0 0 0 0 0 0 0 0 0 0 0 0 0 127 0" result="hardAlpha"/>
<feOffset dy="2"/>
<feGaussianBlur stdDeviation="0.5"/>
<feComposite in2="hardAlpha" operator="arithmetic" k2="-1" k3="1"/>
<feColorMatrix type="matrix" values="0 0 0 0 0.882353 0 0 0 0 0.917647 0 0 0 0 0.996078 0 0 0 0.5 0"/>
<feBlend mode="normal" in2="effect1_innerShadow_2092_616" result="effect2_innerShadow_2092_616"/>
</filter>
<linearGradient id="paint0_linear_2092_616" x1="1" y1="21" x2="14" y2="21" gradientUnits="userSpaceOnUse">
<stop offset="0.0769231" stop-color="#B9CBF3"/>
<stop offset="0.302885" stop-color="#BAD0FC"/>
<stop offset="0.703692" stop-color="#C8D8FB"/>
<stop offset="1" stop-color="#C8D6FB"/>
</linearGradient>
</defs>
</svg>
