<svg width="16" height="17" viewBox="0 0 16 17" fill="none" xmlns="http://www.w3.org/2000/svg">
<mask id="path-1-outside-1_2076_2324" maskUnits="userSpaceOnUse" x="1" y="1" width="15" height="16" fill="black">
<rect fill="white" x="1" y="1" width="15" height="16"/>
<path d="M1 3C1 1.89543 1.89543 1 3 1H12C13.1046 1 14 1.89543 14 3V13C14 14.1046 13.1046 15 12 15H3C1.89543 15 1 14.1046 1 13V3Z"/>
</mask>
<path d="M1 1H14H1ZM16 13C16 15.2091 14.2091 17 12 17H5C2.79086 17 1 15.2091 1 13C1 13 1.89543 13 3 13H12H16ZM1 15V1V15ZM12 1C14.2091 1 16 2.79086 16 5V13C16 15.2091 14.2091 17 12 17V13V3C12 1.89543 12 1 12 1Z" fill="#7C9FD3" mask="url(#path-1-outside-1_2076_2324)"/>
<rect x="0.5" y="0.5" width="14" height="15" rx="2.5" stroke="white"/>
<g filter="url(#filter0_ii_2076_2324)">
<path d="M1 3C1 1.89543 1.89543 1 3 1H12C13.1046 1 14 1.89543 14 3V13C14 14.1046 13.1046 15 12 15H3C1.89543 15 1 14.1046 1 13V3Z" fill="#C1D3FB"/>
</g>
<path d="M3 1.5H12C12.8284 1.5 13.5 2.17157 13.5 3V13C13.5 13.8284 12.8284 14.5 12 14.5H3C2.17157 14.5 1.5 13.8284 1.5 13V3C1.5 2.17157 2.17157 1.5 3 1.5Z" stroke="#95B2F6" stroke-opacity="0.5"/>
<path d="M4.5 6L3 7.5L7.5 12L12 7.5L10.5 6L7.5 9L4.5 6Z" fill="#4D6185"/>
<defs>
<filter id="filter0_ii_2076_2324" x="0" y="0" width="15" height="16" filterUnits="userSpaceOnUse" color-interpolation-filters="sRGB">
<feFlood flood-opacity="0" result="BackgroundImageFix"/>
<feBlend mode="normal" in="SourceGraphic" in2="BackgroundImageFix" result="shape"/>
<feColorMatrix in="SourceAlpha" type="matrix" values="0 0 0 0 0 0 0 0 0 0 0 0 0 0 0 0 0 0 127 0" result="hardAlpha"/>
<feMorphology radius="2" operator="dilate" in="SourceAlpha" result="effect1_innerShadow_2076_2324"/>
<feOffset dx="4" dy="4"/>
<feGaussianBlur stdDeviation="1.5"/>
<feComposite in2="hardAlpha" operator="arithmetic" k2="-1" k3="1"/>
<feColorMatrix type="matrix" values="0 0 0 0 0.88 0 0 0 0 0.917242 0 0 0 0 1 0 0 0 1 0"/>
<feBlend mode="normal" in2="shape" result="effect1_innerShadow_2076_2324"/>
<feColorMatrix in="SourceAlpha" type="matrix" values="0 0 0 0 0 0 0 0 0 0 0 0 0 0 0 0 0 0 127 0" result="hardAlpha"/>
<feMorphology radius="2" operator="dilate" in="SourceAlpha" result="effect2_innerShadow_2076_2324"/>
<feOffset dx="-4" dy="-4"/>
<feGaussianBlur stdDeviation="1.5"/>
<feComposite in2="hardAlpha" operator="arithmetic" k2="-1" k3="1"/>
<feColorMatrix type="matrix" values="0 0 0 0 0.694178 0 0 0 0 0.800044 0 0 0 0 0.981528 0 0 0 1 0"/>
<feBlend mode="normal" in2="effect1_innerShadow_2076_2324" result="effect2_innerShadow_2076_2324"/>
</filter>
</defs>
</svg>
