<svg width="7" height="8" viewBox="0 0 7 8" fill="none" xmlns="http://www.w3.org/2000/svg">
<g filter="url(#filter0_d_2076_2553)">
<path d="M0 0.5C0 0.223858 0.223858 0 0.5 0H5.5C5.77614 0 6 0.223858 6 0.5C6 0.776142 5.77614 1 5.5 1H0.5C0.223858 1 0 0.776142 0 0.5Z" fill="#CFDDFD"/>
<path d="M0 2.5C0 2.22386 0.223858 2 0.5 2H5.5C5.77614 2 6 2.22386 6 2.5C6 2.77614 5.77614 3 5.5 3H0.5C0.223858 3 0 2.77614 0 2.5Z" fill="#CFDDFD"/>
<path d="M0 4.5C0 4.22386 0.223858 4 0.5 4H5.5C5.77614 4 6 4.22386 6 4.5C6 4.77614 5.77614 5 5.5 5H0.5C0.223858 5 0 4.77614 0 4.5Z" fill="#CFDDFD"/>
<path d="M0 6.5C0 6.22386 0.223858 6 0.5 6H5.5C5.77614 6 6 6.22386 6 6.5C6 6.77614 5.77614 7 5.5 7H0.5C0.223858 7 0 6.77614 0 6.5Z" fill="#CFDDFD"/>
</g>
<defs>
<filter id="filter0_d_2076_2553" x="0" y="0" width="7" height="8" filterUnits="userSpaceOnUse" color-interpolation-filters="sRGB">
<feFlood flood-opacity="0" result="BackgroundImageFix"/>
<feColorMatrix in="SourceAlpha" type="matrix" values="0 0 0 0 0 0 0 0 0 0 0 0 0 0 0 0 0 0 127 0" result="hardAlpha"/>
<feOffset dx="1" dy="1"/>
<feComposite in2="hardAlpha" operator="out"/>
<feColorMatrix type="matrix" values="0 0 0 0 0.513726 0 0 0 0 0.619608 0 0 0 0 0.847059 0 0 0 1 0"/>
<feBlend mode="normal" in2="BackgroundImageFix" result="effect1_dropShadow_2076_2553"/>
<feBlend mode="normal" in="SourceGraphic" in2="effect1_dropShadow_2076_2553" result="shape"/>
</filter>
</defs>
</svg>
