<svg width="16" height="17" viewBox="0 0 16 17" fill="none" xmlns="http://www.w3.org/2000/svg">
<mask id="path-1-outside-1_2076_2346" maskUnits="userSpaceOnUse" x="1" y="1" width="15" height="16" fill="black">
<rect fill="white" x="1" y="1" width="15" height="16"/>
<path d="M1 3C1 1.89543 1.89543 1 3 1H12C13.1046 1 14 1.89543 14 3V13C14 14.1046 13.1046 15 12 15H3C1.89543 15 1 14.1046 1 13V3Z"/>
</mask>
<path d="M1 1H14H1M16 13C16 15.2091 14.2091 17 12 17H5C2.79086 17 1 15.2091 1 13C1 13 1.89543 13 3 13H12H16ZM12 13M1 15V1V15M12 1C14.2091 1 16 2.79086 16 5V13C16 15.2091 14.2091 17 12 17V13V3C12 1.89543 12 1 12 1Z" fill="#7C9FD3" mask="url(#path-1-outside-1_2076_2346)"/>
<rect x="0.5" y="0.5" width="14" height="15" rx="2.5" stroke="white"/>
<g filter="url(#filter0_ii_2076_2346)">
<rect x="1" y="1" width="13" height="14" rx="2" fill="url(#paint0_linear_2076_2346)"/>
</g>
<rect x="1.5" y="1.5" width="12" height="13" rx="1.5" stroke="#92AFF7" stroke-opacity="0.33"/>
<defs>
<filter id="filter0_ii_2076_2346" x="1" y="1" width="14" height="15" filterUnits="userSpaceOnUse" color-interpolation-filters="sRGB">
<feFlood flood-opacity="0" result="BackgroundImageFix"/>
<feBlend mode="normal" in="SourceGraphic" in2="BackgroundImageFix" result="shape"/>
<feColorMatrix in="SourceAlpha" type="matrix" values="0 0 0 0 0 0 0 0 0 0 0 0 0 0 0 0 0 0 127 0" result="hardAlpha"/>
<feOffset dx="2"/>
<feGaussianBlur stdDeviation="0.5"/>
<feComposite in2="hardAlpha" operator="arithmetic" k2="-1" k3="1"/>
<feColorMatrix type="matrix" values="0 0 0 0 0.882353 0 0 0 0 0.917647 0 0 0 0 0.996078 0 0 0 0.5 0"/>
<feBlend mode="normal" in2="shape" result="effect1_innerShadow_2076_2346"/>
<feColorMatrix in="SourceAlpha" type="matrix" values="0 0 0 0 0 0 0 0 0 0 0 0 0 0 0 0 0 0 127 0" result="hardAlpha"/>
<feOffset dy="2"/>
<feGaussianBlur stdDeviation="0.5"/>
<feComposite in2="hardAlpha" operator="arithmetic" k2="-1" k3="1"/>
<feColorMatrix type="matrix" values="0 0 0 0 0.882353 0 0 0 0 0.917647 0 0 0 0 0.996078 0 0 0 0.5 0"/>
<feBlend mode="normal" in2="effect1_innerShadow_2076_2346" result="effect2_innerShadow_2076_2346"/>
</filter>
<linearGradient id="paint0_linear_2076_2346" x1="1" y1="8" x2="14" y2="8" gradientUnits="userSpaceOnUse">
<stop stop-color="#C8D6FB"/>
<stop offset="0.296308" stop-color="#C8D8FB"/>
<stop offset="0.697115" stop-color="#BAD0FC"/>
<stop offset="0.923077" stop-color="#B9CBF3"/>
</linearGradient>
</defs>
</svg>
