<svg width="8" height="7" viewBox="0 0 8 7" fill="none" xmlns="http://www.w3.org/2000/svg">
<g filter="url(#filter0_d_2092_630)">
<path d="M0.5 6C0.223858 6 0 5.77614 0 5.5L0 0.5C0 0.223857 0.223858 0 0.5 0C0.776142 0 1 0.223858 1 0.5L1 5.5C1 5.77614 0.776142 6 0.5 6Z" fill="#CFDDFD"/>
<path d="M2.5 6C2.22386 6 2 5.77614 2 5.5L2 0.5C2 0.223857 2.22386 0 2.5 0C2.77614 0 3 0.223858 3 0.5L3 5.5C3 5.77614 2.77614 6 2.5 6Z" fill="#CFDDFD"/>
<path d="M4.5 6C4.22386 6 4 5.77614 4 5.5V0.5C4 0.223857 4.22386 0 4.5 0C4.77614 0 5 0.223858 5 0.5V5.5C5 5.77614 4.77614 6 4.5 6Z" fill="#CFDDFD"/>
<path d="M6.5 6C6.22386 6 6 5.77614 6 5.5V0.5C6 0.223857 6.22386 0 6.5 0C6.77614 0 7 0.223858 7 0.5V5.5C7 5.77614 6.77614 6 6.5 6Z" fill="#CFDDFD"/>
</g>
<defs>
<filter id="filter0_d_2092_630" x="0" y="0" width="8" height="7" filterUnits="userSpaceOnUse" color-interpolation-filters="sRGB">
<feFlood flood-opacity="0" result="BackgroundImageFix"/>
<feColorMatrix in="SourceAlpha" type="matrix" values="0 0 0 0 0 0 0 0 0 0 0 0 0 0 0 0 0 0 127 0" result="hardAlpha"/>
<feOffset dx="1" dy="1"/>
<feComposite in2="hardAlpha" operator="out"/>
<feColorMatrix type="matrix" values="0 0 0 0 0.513726 0 0 0 0 0.619608 0 0 0 0 0.847059 0 0 0 1 0"/>
<feBlend mode="normal" in2="BackgroundImageFix" result="effect1_dropShadow_2092_630"/>
<feBlend mode="normal" in="SourceGraphic" in2="effect1_dropShadow_2092_630" result="shape"/>
</filter>
</defs>
</svg>
