<svg width="17" height="16" viewBox="0 0 17 16" fill="none" xmlns="http://www.w3.org/2000/svg">
<mask id="path-1-outside-1_2092_606" maskUnits="userSpaceOnUse" x="1" y="1" width="16" height="15" fill="black">
<rect fill="white" x="1" y="1" width="16" height="15"/>
<path d="M3 14C1.89543 14 1 13.1046 1 12L1 3C1 1.89543 1.89543 1 3 1H13C14.1046 1 15 1.89543 15 3V12C15 13.1046 14.1046 14 13 14H3Z"/>
</mask>
<path d="M1 14L1 1L1 14ZM13 1C15.2091 1 17 2.79086 17 5V12C17 14.2091 15.2091 16 13 16V12V3C13 1.89543 13 1 13 1ZM17 12C17 14.2091 15.2091 16 13 16H5C2.79086 16 1 14.2091 1 12C1 12 1.89543 12 3 12H13H17ZM1 1H15H1Z" fill="#7C9FD3" mask="url(#path-1-outside-1_2092_606)"/>
<rect x="0.5" y="14.5" width="14" height="15" rx="2.5" transform="rotate(-90 0.5 14.5)" stroke="white"/>
<g filter="url(#filter0_ii_2092_606)">
<rect x="1" y="14" width="13" height="14" rx="2" transform="rotate(-90 1 14)" fill="#C8E1FB"/>
</g>
<rect x="1.5" y="13.5" width="12" height="13" rx="1.5" transform="rotate(-90 1.5 13.5)" stroke="#2054C1" stroke-opacity="0.33"/>
<path d="M11 10.5L9.5 12L5 7.5L9.5 3L11 4.5L8 7.5L11 10.5Z" fill="#4D6185"/>
<defs>
<filter id="filter0_ii_2092_606" x="0" y="0" width="16" height="15" filterUnits="userSpaceOnUse" color-interpolation-filters="sRGB">
<feFlood flood-opacity="0" result="BackgroundImageFix"/>
<feBlend mode="normal" in="SourceGraphic" in2="BackgroundImageFix" result="shape"/>
<feColorMatrix in="SourceAlpha" type="matrix" values="0 0 0 0 0 0 0 0 0 0 0 0 0 0 0 0 0 0 127 0" result="hardAlpha"/>
<feMorphology radius="2" operator="dilate" in="SourceAlpha" result="effect1_innerShadow_2092_606"/>
<feOffset dx="4" dy="4"/>
<feGaussianBlur stdDeviation="1.5"/>
<feComposite in2="hardAlpha" operator="arithmetic" k2="-1" k3="1"/>
<feColorMatrix type="matrix" values="0 0 0 0 0.964706 0 0 0 0 1 0 0 0 0 1 0 0 0 0.66 0"/>
<feBlend mode="normal" in2="shape" result="effect1_innerShadow_2092_606"/>
<feColorMatrix in="SourceAlpha" type="matrix" values="0 0 0 0 0 0 0 0 0 0 0 0 0 0 0 0 0 0 127 0" result="hardAlpha"/>
<feMorphology radius="2" operator="dilate" in="SourceAlpha" result="effect2_innerShadow_2092_606"/>
<feOffset dx="-4" dy="-4"/>
<feGaussianBlur stdDeviation="1.5"/>
<feComposite in2="hardAlpha" operator="arithmetic" k2="-1" k3="1"/>
<feColorMatrix type="matrix" values="0 0 0 0 0.72549 0 0 0 0 0.854902 0 0 0 0 0.984314 0 0 0 1 0"/>
<feBlend mode="normal" in2="effect1_innerShadow_2092_606" result="effect2_innerShadow_2092_606"/>
</filter>
</defs>
</svg>
